# MagicaVoxel @ Ephtracy

# group
o 

# material
mtllib cube_vert.mtl
usemtl palette

# normals
vn -1 0 0
vn 1 0 0
vn 0 0 1
vn 0 0 -1
vn 0 -1 0
vn 0 1 0

# texcoords
vt 0.00195312 0.5
vt 0.00585938 0.5
vt 0.00976562 0.5
vt 0.0214844 0.5
vt 0.0292969 0.5

# verts
v -0.4 0 0.4
v -0.4 0 -0.4
v -0.4 0.1 0.3
v -0.4 0.1 -0.3
v -0.4 0.2 0.3
v -0.4 0.2 0.2
v -0.4 0.2 -0.2
v -0.4 0.3 0.2
v -0.4 0.3 -0.1
v -0.4 0.6 0.2
v -0.4 0.6 -0.1
v -0.4 0.6 -0.2
v -0.4 0.7 0.3
v -0.4 0.7 -0.2
v -0.4 0.7 -0.3
v -0.4 0.8 0.4
v -0.4 0.8 -0.4
v 0.4 0 0.4
v 0.4 0 -0.4
v 0.4 0.1 0.3
v 0.4 0.1 -0.3
v 0.4 0.2 0.3
v 0.4 0.2 0.2
v 0.4 0.2 -0.2
v 0.4 0.3 0.2
v 0.4 0.3 -0.1
v 0.4 0.6 0.2
v 0.4 0.6 -0.1
v 0.4 0.6 -0.2
v 0.4 0.7 0.3
v 0.4 0.7 -0.2
v 0.4 0.7 -0.3
v 0.4 0.8 0.4
v 0.4 0.8 -0.4
v -0.4 0 0.4
v -0.4 0.8 0.4
v -0.3 0.1 0.4
v -0.3 0.2 0.4
v -0.3 0.7 0.4
v -0.2 0.2 0.4
v -0.2 0.3 0.4
v -0.2 0.6 0.4
v 0.1 0.3 0.4
v 0.1 0.6 0.4
v 0.2 0.2 0.4
v 0.2 0.6 0.4
v 0.2 0.7 0.4
v 0.3 0.1 0.4
v 0.3 0.7 0.4
v 0.4 0 0.4
v 0.4 0.8 0.4
v -0.4 0 -0.4
v -0.4 0.8 -0.4
v -0.3 0.1 -0.4
v -0.3 0.2 -0.4
v -0.3 0.7 -0.4
v -0.2 0.2 -0.4
v -0.2 0.3 -0.4
v -0.2 0.6 -0.4
v 0.1 0.3 -0.4
v 0.1 0.6 -0.4
v 0.2 0.2 -0.4
v 0.2 0.6 -0.4
v 0.2 0.7 -0.4
v 0.3 0.1 -0.4
v 0.3 0.7 -0.4
v 0.4 0 -0.4
v 0.4 0.8 -0.4
v -0.4 0 0.4
v 0.4 0 0.4
v -0.3 0 0.3
v 0.2 0 0.3
v 0.3 0 0.3
v -0.2 0 0.2
v 0.1 0 0.2
v 0.2 0 0.2
v -0.2 0 -0.1
v 0.1 0 -0.1
v -0.3 0 -0.2
v -0.2 0 -0.2
v 0.2 0 -0.2
v -0.3 0 -0.3
v 0.3 0 -0.3
v -0.4 0 -0.4
v 0.4 0 -0.4
v -0.4 0.8 0.4
v 0.4 0.8 0.4
v -0.3 0.8 0.3
v 0.2 0.8 0.3
v 0.3 0.8 0.3
v -0.2 0.8 0.2
v 0.1 0.8 0.2
v 0.2 0.8 0.2
v -0.2 0.8 -0.1
v 0.1 0.8 -0.1
v -0.3 0.8 -0.2
v -0.2 0.8 -0.2
v 0.2 0.8 -0.2
v -0.3 0.8 -0.3
v 0.3 0.8 -0.3
v -0.4 0.8 -0.4
v 0.4 0.8 -0.4

# faces
f 3/1/1 2/1/1 1/1/1
f 4/1/1 2/1/1 3/1/1
f 5/1/1 3/1/1 1/1/1
f 5/3/1 4/3/1 3/3/1
f 6/3/1 4/3/1 5/3/1
f 7/3/1 4/3/1 6/3/1
f 8/5/1 6/5/1 5/5/1
f 8/1/1 7/1/1 6/1/1
f 9/1/1 7/1/1 8/1/1
f 10/5/1 8/5/1 5/5/1
f 10/2/1 9/2/1 8/2/1
f 11/1/1 7/1/1 9/1/1
f 11/2/1 9/2/1 10/2/1
f 12/3/1 4/3/1 7/3/1
f 12/1/1 7/1/1 11/1/1
f 13/1/1 5/1/1 1/1/1
f 13/5/1 11/5/1 10/5/1
f 13/5/1 12/5/1 11/5/1
f 13/5/1 10/5/1 5/5/1
f 14/3/1 4/3/1 12/3/1
f 14/5/1 12/5/1 13/5/1
f 15/1/1 2/1/1 4/1/1
f 15/3/1 4/3/1 14/3/1
f 16/1/1 14/1/1 13/1/1
f 16/1/1 13/1/1 1/1/1
f 16/1/1 15/1/1 14/1/1
f 17/1/1 2/1/1 15/1/1
f 17/1/1 15/1/1 16/1/1
f 18/1/2 19/1/2 20/1/2
f 20/1/2 19/1/2 21/1/2
f 18/1/2 20/1/2 22/1/2
f 20/3/2 21/3/2 22/3/2
f 22/3/2 21/3/2 23/3/2
f 23/3/2 21/3/2 24/3/2
f 22/5/2 23/5/2 25/5/2
f 23/1/2 24/1/2 25/1/2
f 25/1/2 24/1/2 26/1/2
f 22/5/2 25/5/2 27/5/2
f 25/2/2 26/2/2 27/2/2
f 26/1/2 24/1/2 28/1/2
f 27/2/2 26/2/2 28/2/2
f 24/3/2 21/3/2 29/3/2
f 28/1/2 24/1/2 29/1/2
f 18/1/2 22/1/2 30/1/2
f 27/5/2 28/5/2 30/5/2
f 28/5/2 29/5/2 30/5/2
f 22/5/2 27/5/2 30/5/2
f 29/3/2 21/3/2 31/3/2
f 30/5/2 29/5/2 31/5/2
f 21/1/2 19/1/2 32/1/2
f 31/3/2 21/3/2 32/3/2
f 30/1/2 31/1/2 33/1/2
f 18/1/2 30/1/2 33/1/2
f 31/1/2 32/1/2 33/1/2
f 32/1/2 19/1/2 34/1/2
f 33/1/2 32/1/2 34/1/2
f 37/1/3 36/1/3 35/1/3
f 38/1/3 36/1/3 37/1/3
f 39/1/3 36/1/3 38/1/3
f 40/3/3 38/3/3 37/3/3
f 40/5/3 39/5/3 38/5/3
f 41/5/3 39/5/3 40/5/3
f 42/5/3 39/5/3 41/5/3
f 43/1/3 41/1/3 40/1/3
f 43/2/3 42/2/3 41/2/3
f 44/5/3 39/5/3 42/5/3
f 44/2/3 42/2/3 43/2/3
f 45/3/3 40/3/3 37/3/3
f 45/1/3 43/1/3 40/1/3
f 45/1/3 44/1/3 43/1/3
f 46/5/3 39/5/3 44/5/3
f 46/1/3 44/1/3 45/1/3
f 47/1/3 36/1/3 39/1/3
f 47/5/3 39/5/3 46/5/3
f 48/1/3 37/1/3 35/1/3
f 48/3/3 46/3/3 45/3/3
f 48/3/3 47/3/3 46/3/3
f 48/3/3 45/3/3 37/3/3
f 49/1/3 36/1/3 47/1/3
f 49/3/3 47/3/3 48/3/3
f 50/1/3 48/1/3 35/1/3
f 50/1/3 49/1/3 48/1/3
f 51/1/3 36/1/3 49/1/3
f 51/1/3 49/1/3 50/1/3
f 52/1/4 53/1/4 54/1/4
f 54/1/4 53/1/4 55/1/4
f 55/1/4 53/1/4 56/1/4
f 54/3/4 55/3/4 57/3/4
f 55/5/4 56/5/4 57/5/4
f 57/5/4 56/5/4 58/5/4
f 58/5/4 56/5/4 59/5/4
f 57/1/4 58/1/4 60/1/4
f 58/2/4 59/2/4 60/2/4
f 59/5/4 56/5/4 61/5/4
f 60/2/4 59/2/4 61/2/4
f 54/3/4 57/3/4 62/3/4
f 57/1/4 60/1/4 62/1/4
f 60/1/4 61/1/4 62/1/4
f 61/5/4 56/5/4 63/5/4
f 62/1/4 61/1/4 63/1/4
f 56/1/4 53/1/4 64/1/4
f 63/5/4 56/5/4 64/5/4
f 52/1/4 54/1/4 65/1/4
f 62/3/4 63/3/4 65/3/4
f 63/3/4 64/3/4 65/3/4
f 54/3/4 62/3/4 65/3/4
f 64/1/4 53/1/4 66/1/4
f 65/3/4 64/3/4 66/3/4
f 52/1/4 65/1/4 67/1/4
f 65/1/4 66/1/4 67/1/4
f 66/1/4 53/1/4 68/1/4
f 67/1/4 66/1/4 68/1/4
f 71/1/5 70/1/5 69/1/5
f 72/1/5 70/1/5 71/1/5
f 73/1/5 70/1/5 72/1/5
f 74/5/5 72/5/5 71/5/5
f 75/5/5 72/5/5 74/5/5
f 76/3/5 73/3/5 72/3/5
f 76/5/5 72/5/5 75/5/5
f 77/2/5 75/2/5 74/2/5
f 77/5/5 74/5/5 71/5/5
f 78/1/5 76/1/5 75/1/5
f 78/2/5 75/2/5 77/2/5
f 79/1/5 71/1/5 69/1/5
f 79/5/5 77/5/5 71/5/5
f 80/1/5 78/1/5 77/1/5
f 80/5/5 77/5/5 79/5/5
f 81/1/5 76/1/5 78/1/5
f 81/1/5 78/1/5 80/1/5
f 81/3/5 73/3/5 76/3/5
f 82/3/5 80/3/5 79/3/5
f 82/1/5 79/1/5 69/1/5
f 82/3/5 81/3/5 80/3/5
f 83/3/5 73/3/5 81/3/5
f 83/3/5 81/3/5 82/3/5
f 83/1/5 70/1/5 73/1/5
f 84/1/5 82/1/5 69/1/5
f 84/1/5 83/1/5 82/1/5
f 85/1/5 70/1/5 83/1/5
f 85/1/5 83/1/5 84/1/5
f 86/1/6 87/1/6 88/1/6
f 88/1/6 87/1/6 89/1/6
f 89/1/6 87/1/6 90/1/6
f 88/5/6 89/5/6 91/5/6
f 91/5/6 89/5/6 92/5/6
f 89/3/6 90/3/6 93/3/6
f 92/5/6 89/5/6 93/5/6
f 91/2/6 92/2/6 94/2/6
f 88/5/6 91/5/6 94/5/6
f 92/1/6 93/1/6 95/1/6
f 94/2/6 92/2/6 95/2/6
f 86/1/6 88/1/6 96/1/6
f 88/5/6 94/5/6 96/5/6
f 94/1/6 95/1/6 97/1/6
f 96/5/6 94/5/6 97/5/6
f 95/1/6 93/1/6 98/1/6
f 97/1/6 95/1/6 98/1/6
f 93/3/6 90/3/6 98/3/6
f 96/3/6 97/3/6 99/3/6
f 86/1/6 96/1/6 99/1/6
f 97/3/6 98/3/6 99/3/6
f 98/3/6 90/3/6 100/3/6
f 99/3/6 98/3/6 100/3/6
f 90/1/6 87/1/6 100/1/6
f 86/1/6 99/1/6 101/1/6
f 99/1/6 100/1/6 101/1/6
f 100/1/6 87/1/6 102/1/6
f 101/1/6 100/1/6 102/1/6
