# MagicaVoxel @ Ephtracy

# group
o 

# material
mtllib cube_jaune.mtl
usemtl palette

# normals
vn -1 0 0
vn 1 0 0
vn 0 0 1
vn 0 0 -1
vn 0 -1 0
vn 0 1 0

# texcoords
vt 0.00195312 0.5
vt 0.00976562 0.5
vt 0.0136719 0.5
vt 0.0175781 0.5
vt 0.0566406 0.5

# verts
v -0.4 0 0.4
v -0.4 0 -0.4
v -0.4 0.1 0.3
v -0.4 0.1 -0.3
v -0.4 0.2 0.3
v -0.4 0.2 0.2
v -0.4 0.2 -0.2
v -0.4 0.3 0.2
v -0.4 0.3 -0.1
v -0.4 0.6 0.2
v -0.4 0.6 -0.1
v -0.4 0.6 -0.2
v -0.4 0.7 0.3
v -0.4 0.7 -0.2
v -0.4 0.7 -0.3
v -0.4 0.8 0.4
v -0.4 0.8 -0.4
v 0.4 0 0.4
v 0.4 0 -0.4
v 0.4 0.1 0.3
v 0.4 0.1 -0.3
v 0.4 0.2 0.3
v 0.4 0.2 0.2
v 0.4 0.2 -0.2
v 0.4 0.3 0.2
v 0.4 0.3 -0.1
v 0.4 0.6 0.2
v 0.4 0.6 -0.1
v 0.4 0.6 -0.2
v 0.4 0.7 0.3
v 0.4 0.7 -0.2
v 0.4 0.7 -0.3
v 0.4 0.8 0.4
v 0.4 0.8 -0.4
v -0.4 0 0.4
v -0.4 0.8 0.4
v -0.3 0.1 0.4
v -0.3 0.2 0.4
v -0.3 0.7 0.4
v -0.2 0.2 0.4
v -0.2 0.3 0.4
v -0.2 0.6 0.4
v 0.1 0.3 0.4
v 0.1 0.6 0.4
v 0.2 0.2 0.4
v 0.2 0.6 0.4
v 0.2 0.7 0.4
v 0.3 0.1 0.4
v 0.3 0.7 0.4
v 0.4 0 0.4
v 0.4 0.8 0.4
v -0.4 0 -0.4
v -0.4 0.8 -0.4
v -0.3 0.1 -0.4
v -0.3 0.2 -0.4
v -0.3 0.7 -0.4
v -0.2 0.2 -0.4
v -0.2 0.3 -0.4
v -0.2 0.6 -0.4
v 0.1 0.3 -0.4
v 0.1 0.6 -0.4
v 0.2 0.2 -0.4
v 0.2 0.6 -0.4
v 0.2 0.7 -0.4
v 0.3 0.1 -0.4
v 0.3 0.7 -0.4
v 0.4 0 -0.4
v 0.4 0.8 -0.4
v -0.4 0 0.4
v 0.4 0 0.4
v -0.3 0 0.3
v 0.2 0 0.3
v 0.3 0 0.3
v -0.2 0 0.2
v 0.1 0 0.2
v 0.2 0 0.2
v -0.2 0 -0.1
v 0.1 0 -0.1
v -0.3 0 -0.2
v -0.2 0 -0.2
v 0.2 0 -0.2
v -0.3 0 -0.3
v 0.3 0 -0.3
v -0.4 0 -0.4
v 0.4 0 -0.4
v -0.4 0.8 0.4
v 0.4 0.8 0.4
v -0.3 0.8 0.3
v 0.2 0.8 0.3
v 0.3 0.8 0.3
v -0.2 0.8 0.2
v 0.1 0.8 0.2
v 0.2 0.8 0.2
v -0.2 0.8 -0.1
v 0.1 0.8 -0.1
v -0.3 0.8 -0.2
v -0.2 0.8 -0.2
v 0.2 0.8 -0.2
v -0.3 0.8 -0.3
v 0.3 0.8 -0.3
v -0.4 0.8 -0.4
v 0.4 0.8 -0.4

# faces
f 3/3/1 2/3/1 1/3/1
f 4/3/1 2/3/1 3/3/1
f 5/3/1 3/3/1 1/3/1
f 5/4/1 4/4/1 3/4/1
f 6/4/1 4/4/1 5/4/1
f 7/4/1 4/4/1 6/4/1
f 8/5/1 6/5/1 5/5/1
f 8/3/1 7/3/1 6/3/1
f 9/3/1 7/3/1 8/3/1
f 10/5/1 8/5/1 5/5/1
f 10/2/1 9/2/1 8/2/1
f 11/3/1 7/3/1 9/3/1
f 11/2/1 9/2/1 10/2/1
f 12/4/1 4/4/1 7/4/1
f 12/3/1 7/3/1 11/3/1
f 13/3/1 5/3/1 1/3/1
f 13/5/1 11/5/1 10/5/1
f 13/5/1 12/5/1 11/5/1
f 13/5/1 10/5/1 5/5/1
f 14/4/1 4/4/1 12/4/1
f 14/5/1 12/5/1 13/5/1
f 15/3/1 2/3/1 4/3/1
f 15/4/1 4/4/1 14/4/1
f 16/3/1 14/3/1 13/3/1
f 16/3/1 13/3/1 1/3/1
f 16/3/1 15/3/1 14/3/1
f 17/3/1 2/3/1 15/3/1
f 17/3/1 15/3/1 16/3/1
f 18/3/2 19/3/2 20/3/2
f 20/3/2 19/3/2 21/3/2
f 18/3/2 20/3/2 22/3/2
f 20/4/2 21/4/2 22/4/2
f 22/4/2 21/4/2 23/4/2
f 23/4/2 21/4/2 24/4/2
f 22/5/2 23/5/2 25/5/2
f 23/3/2 24/3/2 25/3/2
f 25/3/2 24/3/2 26/3/2
f 22/5/2 25/5/2 27/5/2
f 25/2/2 26/2/2 27/2/2
f 26/3/2 24/3/2 28/3/2
f 27/2/2 26/2/2 28/2/2
f 24/4/2 21/4/2 29/4/2
f 28/3/2 24/3/2 29/3/2
f 18/3/2 22/3/2 30/3/2
f 27/5/2 28/5/2 30/5/2
f 28/5/2 29/5/2 30/5/2
f 22/5/2 27/5/2 30/5/2
f 29/4/2 21/4/2 31/4/2
f 30/5/2 29/5/2 31/5/2
f 21/3/2 19/3/2 32/3/2
f 31/4/2 21/4/2 32/4/2
f 30/3/2 31/3/2 33/3/2
f 18/3/2 30/3/2 33/3/2
f 31/3/2 32/3/2 33/3/2
f 32/3/2 19/3/2 34/3/2
f 33/3/2 32/3/2 34/3/2
f 37/3/3 36/3/3 35/3/3
f 38/3/3 36/3/3 37/3/3
f 39/3/3 36/3/3 38/3/3
f 40/4/3 38/4/3 37/4/3
f 40/5/3 39/5/3 38/5/3
f 41/5/3 39/5/3 40/5/3
f 42/5/3 39/5/3 41/5/3
f 43/3/3 41/3/3 40/3/3
f 43/2/3 42/2/3 41/2/3
f 44/5/3 39/5/3 42/5/3
f 44/2/3 42/2/3 43/2/3
f 45/4/3 40/4/3 37/4/3
f 45/3/3 43/3/3 40/3/3
f 45/3/3 44/3/3 43/3/3
f 46/5/3 39/5/3 44/5/3
f 46/3/3 44/3/3 45/3/3
f 47/3/3 36/3/3 39/3/3
f 47/5/3 39/5/3 46/5/3
f 48/3/3 37/3/3 35/3/3
f 48/4/3 46/4/3 45/4/3
f 48/4/3 47/4/3 46/4/3
f 48/4/3 45/4/3 37/4/3
f 49/3/3 36/3/3 47/3/3
f 49/4/3 47/4/3 48/4/3
f 50/3/3 48/3/3 35/3/3
f 50/3/3 49/3/3 48/3/3
f 51/3/3 36/3/3 49/3/3
f 51/3/3 49/3/3 50/3/3
f 52/3/4 53/3/4 54/3/4
f 54/3/4 53/3/4 55/3/4
f 55/3/4 53/3/4 56/3/4
f 54/4/4 55/4/4 57/4/4
f 55/5/4 56/5/4 57/5/4
f 57/5/4 56/5/4 58/5/4
f 58/5/4 56/5/4 59/5/4
f 57/3/4 58/3/4 60/3/4
f 58/2/4 59/2/4 60/2/4
f 59/5/4 56/5/4 61/5/4
f 60/2/4 59/2/4 61/2/4
f 54/4/4 57/4/4 62/4/4
f 57/3/4 60/3/4 62/3/4
f 60/3/4 61/3/4 62/3/4
f 61/5/4 56/5/4 63/5/4
f 62/3/4 61/3/4 63/3/4
f 56/3/4 53/3/4 64/3/4
f 63/5/4 56/5/4 64/5/4
f 52/3/4 54/3/4 65/3/4
f 62/4/4 63/4/4 65/4/4
f 63/4/4 64/4/4 65/4/4
f 54/4/4 62/4/4 65/4/4
f 64/3/4 53/3/4 66/3/4
f 65/4/4 64/4/4 66/4/4
f 52/3/4 65/3/4 67/3/4
f 65/3/4 66/3/4 67/3/4
f 66/3/4 53/3/4 68/3/4
f 67/3/4 66/3/4 68/3/4
f 71/3/5 70/3/5 69/3/5
f 72/3/5 70/3/5 71/3/5
f 73/3/5 70/3/5 72/3/5
f 74/5/5 72/5/5 71/5/5
f 75/5/5 72/5/5 74/5/5
f 76/4/5 73/4/5 72/4/5
f 76/5/5 72/5/5 75/5/5
f 77/2/5 75/2/5 74/2/5
f 77/5/5 74/5/5 71/5/5
f 78/3/5 76/3/5 75/3/5
f 78/2/5 75/2/5 77/2/5
f 79/3/5 71/3/5 69/3/5
f 79/5/5 77/5/5 71/5/5
f 80/3/5 78/3/5 77/3/5
f 80/5/5 77/5/5 79/5/5
f 81/3/5 76/3/5 78/3/5
f 81/3/5 78/3/5 80/3/5
f 81/4/5 73/4/5 76/4/5
f 82/4/5 80/4/5 79/4/5
f 82/3/5 79/3/5 69/3/5
f 82/4/5 81/4/5 80/4/5
f 83/4/5 73/4/5 81/4/5
f 83/4/5 81/4/5 82/4/5
f 83/3/5 70/3/5 73/3/5
f 84/3/5 82/3/5 69/3/5
f 84/3/5 83/3/5 82/3/5
f 85/3/5 70/3/5 83/3/5
f 85/3/5 83/3/5 84/3/5
f 86/3/6 87/3/6 88/3/6
f 88/3/6 87/3/6 89/3/6
f 89/3/6 87/3/6 90/3/6
f 88/5/6 89/5/6 91/5/6
f 91/5/6 89/5/6 92/5/6
f 89/4/6 90/4/6 93/4/6
f 92/5/6 89/5/6 93/5/6
f 91/2/6 92/2/6 94/2/6
f 88/5/6 91/5/6 94/5/6
f 92/3/6 93/3/6 95/3/6
f 94/2/6 92/2/6 95/2/6
f 86/3/6 88/3/6 96/3/6
f 88/5/6 94/5/6 96/5/6
f 94/3/6 95/3/6 97/3/6
f 96/5/6 94/5/6 97/5/6
f 95/3/6 93/3/6 98/3/6
f 97/3/6 95/3/6 98/3/6
f 93/4/6 90/4/6 98/4/6
f 96/4/6 97/4/6 99/4/6
f 86/3/6 96/3/6 99/3/6
f 97/4/6 98/4/6 99/4/6
f 98/4/6 90/4/6 100/4/6
f 99/4/6 98/4/6 100/4/6
f 90/3/6 87/3/6 100/3/6
f 86/3/6 99/3/6 101/3/6
f 99/3/6 100/3/6 101/3/6
f 100/3/6 87/3/6 102/3/6
f 101/3/6 100/3/6 102/3/6
